<!-- icon666.com - MILLIONS vector ICONS FREE --><svg enable-background="new 0 0 512 512" viewBox="0 0 512 512" xmlns="http://www.w3.org/2000/svg"><g id="_x33_7_Literature_Exchange"><g><g><path d="m365.962 156.871c20.239-45.481 13.211-70.932 34.376-81.481 29.827-14.865 33.053-41.248 33.173-42.361.353-3.173-1.932-6.023-5.105-6.368-3.203-.376-6.023 1.94-6.368 5.105-.023.211-2.602 21.203-26.857 33.293-10.226 5.098-17.917 14.744-21.09 26.466l-1.473 5.436c-83.349 0-142.22 0-221.136 0-20.128 0-36.496 16.368-36.496 36.496v155.934c-12.773 4.869-51.31 21.942-55.962 52.201-2.669 17.376-6.632 38.887-9.489 53.865-3.12 16.368-8.872 32.045-17.105 46.594-13.835 24.414-18.474 32.173-19.925 34.383-1.759 2.662-1.023 6.241 1.647 7.992 2.656 1.757 6.25 1.021 7.992-1.647 2.263-3.421 9.098-15.211 20.331-35.038 8.865-15.654 15.053-32.519 18.398-50.12 2.88-15.075 6.872-36.729 9.564-54.271 3.3-21.432 30.85-35.665 44.549-41.492v20.447l-11.504 11.504c-.925.917-1.504 2.128-1.654 3.421-1.669 14.444 13.474 23.203 14.113 23.564 2.684 1.526 6.045.669 7.699-1.887l32.992-51.113c1.211-1.895 3.654-2.579 5.684-1.647 2.541 1.188 3.684 4.233 2.541 6.789l-18.82 42.195c-9.303 20.924-11.258 34.311-19.271 62.323-2.316 8.541-7.82 15.526-15.098 19.165-29.835 14.857-33.06 41.241-33.18 42.353-.353 3.158 1.917 5.985 5.075 6.353 3.105.293 6.008-1.895 6.398-5.06.105-.865 2.865-21.361 26.857-33.316 2.825-1.41 5.399-3.233 7.796-5.284 6.646 7.37 16.199 12.043 26.889 12.043h239.744c3.188 0 5.774-2.586 5.774-5.774-.001-21.269-.021-224.242-.021-225.315 12.758-4.863 51.323-21.935 55.977-52.199 2.647-17.18 6.624-38.782 9.489-53.872 3.12-16.376 8.88-32.053 17.113-46.594 10.737-18.955 17.812-31.165 19.925-34.383 1.752-2.669 1.008-6.248-1.654-8-2.677-1.759-6.248-1.008-8 1.654-2.88 4.391-12.639 21.481-20.316 35.038-8.865 15.639-15.06 32.504-18.406 50.128-2.895 15.188-6.895 36.932-9.564 54.271-3.301 21.432-30.87 35.669-44.564 41.491v-20.438l11.519-11.519c.925-.917 1.504-2.128 1.654-3.421 1.669-14.444-13.474-23.203-14.113-23.564-2.684-1.519-6.045-.677-7.699 1.887l-33 51.12c-1.203 1.88-3.669 2.571-5.669 1.639-2.549-1.188-3.692-4.233-2.549-6.789zm-250.977 187.608c-.835-1.27-1.481-2.666-1.669-4.164l1.669-1.67zm282.015-176.974c.842 1.275 1.495 2.678 1.684 4.185l-1.684 1.685zm-221.602 150.14c3.699-8.286.015-18.135-8.211-21.962-7.218-3.376-15.932-.857-20.256 5.85l-20.398 31.603c.145-50.938.131-13.536 0-199.679 0-13.759 11.188-24.947 24.947-24.947h28.534v272.135c-33.96.108-27.496-.137-31.126.168 5.919-19.378 9.69-24.427 26.51-63.168zm210.076 124.519h-233.97c-7.833 0-14.78-3.662-19.338-9.336 2.452-3.76 4.521-7.83 5.744-12.348l7.4-27.309c6.376-1.711-6.811-.52 240.164-.894zm-40.654-225.842c7.195 3.361 15.932.857 20.248-5.85l20.383-31.581c-.015 278.452-.153-100.226 0 201.754h-193.887v-272.135h177.925c-18.406 62.927-16.885 45.685-32.887 85.85-3.7 8.285-.016 18.142 8.218 21.962z" fill="#000000" style="fill: rgb(255, 255, 255);"></path></g></g></g></svg>